<svg width="156" height="56" viewBox="0 0 156 56" fill="none" xmlns="http://www.w3.org/2000/svg"><path d="M155.56 0H0v56h155.56V0z" fill="#EE5151"/><path fill-rule="evenodd" clip-rule="evenodd" d="M132.5 30.3h-5.85v7.34h-4.38V18.36h4.38v7.56h5.85v-7.56h4.39v19.28h-4.39V30.3zM115.36 26.13c-.22-.12-.47-.21-.72-.34-1.33-.59-2.86-1.27-2.86-2.52 0-.9 1.03-1.62 1.93-1.62 1.37 0 2.3 1.31 2.4 2.5h4.48A6.62 6.62 0 00113.7 18c-1.55 0-3.14.44-4.35 1.37a4.97 4.97 0 00-2 3.9c0 2.51 1.22 4.32 3.61 5.34l.44.19c2.33 1 4.54 1.93 4.54 3.27 0 1.18-.75 1.99-1.8 1.99-1.34 0-2.15-.84-2.4-2.27h-4.51c.16 3.36 3.17 6.1 6.66 6.1 3.95 0 6.72-2.46 6.72-6.17 0-3.05-2.93-4.48-5.26-5.6zM98.19 37.96c-2.03 0-4.17-.56-5.63-2.09-1.72-1.83-1.87-3.48-1.87-5.88V18.36h4.39v11.63c0 1.68.84 3.64 3.14 3.58 2.24.06 2.92-1.8 2.92-3.58V18.36h4.39v11.63c0 2.24-.25 4.2-1.87 5.88a7.57 7.57 0 01-5.47 2.09zM78.56 22.56v5.04h2.52c1.68 0 3.14-.6 3.14-2.52 0-2.06-1.65-2.52-3.33-2.52h-2.33zm2.7 9.02h-2.7v6.06h-4.4V18.36h6.7c1.9 0 4.3.09 5.85 1.46a6.26 6.26 0 012.3 5.04c0 1.8-.69 3.89-2.09 5.04-1.61 1.5-3.42 1.7-5.66 1.68zM62.25 29.24v8.4h-4.38V18.36h4.38v8.4l5.45-8.4h5L66.65 28l6.07 9.64H67.7l-5.45-8.4zM41.56 31.67c0 4.05 3.49 6.29 7.32 6.29 3.82 0 7-1.8 7.3-6.5h-4.22c-.25 1.77-1.19 2.73-3.08 2.73-2.93 0-2.93-2.3-2.93-2.3V24.1s0-2.3 2.93-2.3c1.9 0 2.83.96 3.08 2.74h4.23c-.31-4.7-3.49-6.5-7.31-6.5-3.86 0-7.32 2.23-7.32 6.28v7.34z" fill="#fff"/><path d="M39.36 18.36h-4.4v19.28h4.4V18.36z" fill="#fff"/><path fill-rule="evenodd" clip-rule="evenodd" d="M23.05 29.28v8.36h-4.38V18.36h4.38v8.4l5.45-8.4h5L27.45 28l6.07 9.64H28.5l-5.45-8.36z" fill="#fff"/></svg>