<svg width="156" height="56" viewBox="0 0 156 56" fill="none" xmlns="http://www.w3.org/2000/svg"><path fill-rule="evenodd" clip-rule="evenodd" d="M132.501 30.302h-5.849v7.343h-4.386v-19.29h4.386v7.56h5.849v-7.56h4.387v19.29h-4.387v-7.343ZM115.36 26.133c-.218-.124-.466-.217-.715-.342-1.338-.591-2.863-1.275-2.863-2.52 0-.902 1.027-1.618 1.929-1.618 1.369 0 2.303 1.307 2.396 2.49h4.48c-.156-2.956-2.613-6.13-6.876-6.13-1.555 0-3.142.436-4.355 1.37-1.276 1.026-1.991 2.395-1.991 3.888 0 2.52 1.213 4.325 3.609 5.351l.435.187c2.333.995 4.542 1.929 4.542 3.267 0 1.182-.746 1.99-1.804 1.99-1.338 0-2.147-.84-2.396-2.27h-4.511c.156 3.36 3.174 6.097 6.658 6.097 3.951 0 6.72-2.457 6.72-6.16 0-3.049-2.924-4.48-5.258-5.6ZM98.185 37.956c-2.022 0-4.169-.56-5.63-2.085-1.712-1.835-1.868-3.484-1.868-5.88V18.356h4.387V29.99c0 1.68.84 3.64 3.142 3.578 2.24.062 2.925-1.805 2.925-3.578V18.356h4.387V29.99c0 2.24-.249 4.2-1.867 5.88-1.556 1.493-3.422 2.085-5.476 2.085ZM62.252 29.244v8.4h-4.387V18.357h4.387v8.4l5.444-8.4h5.01L66.638 28l6.066 9.645h-5.009l-5.444-8.4ZM41.565 31.671c0 4.045 3.484 6.285 7.31 6.285 3.827 0 7-1.805 7.312-6.503h-4.231c-.25 1.774-1.183 2.738-3.08 2.738-2.925 0-2.925-2.302-2.925-2.302V24.11s0-2.302 2.925-2.302c1.897 0 2.83.964 3.08 2.738h4.23c-.31-4.698-3.484-6.503-7.31-6.503-3.858 0-7.311 2.24-7.311 6.285v7.342Z" fill="#fff"/><path d="M39.355 18.356H34.97v19.288h4.386V18.357Z" fill="#fff"/><path fill-rule="evenodd" clip-rule="evenodd" d="M23.053 22.556v5.04h2.52c1.68 0 3.142-.591 3.142-2.52 0-2.054-1.649-2.52-3.329-2.52h-2.333Zm2.706 9.022h-2.706v6.067h-4.387v-19.29h6.689c1.898 0 4.293.094 5.849 1.463 1.555 1.213 2.302 3.08 2.302 5.04 0 1.804-.684 3.889-2.084 5.04-1.618 1.493-3.423 1.71-5.663 1.68ZM78.892 29.276v8.369h-4.386v-19.29h4.386v8.4l5.445-8.4h5.009L83.279 28l6.067 9.645h-5.009l-5.445-8.37Z" fill="#fff"/></svg>